<?xml version="1.0" encoding="utf-8" ?><svg xmlns="http://www.w3.org/2000/svg" xmlns:xlink="http://www.w3.org/1999/xlink" width="300" height="323" viewBox="0 0 300 323"><path fill="white" transform="matrix(0.262009 0 0 0.262602 0 9.53674e-07)" d="M1072.14 644.022C1067.24 657.634 1066.35 663.028 1058.73 676.486C1046.43 698.871 1027.89 715.514 1006.94 729.847C983.917 745.6 959.258 760.45 935.5 775.181C926.454 780.79 915.84 784.758 906.741 790.291C893.943 798.074 881.27 806.06 868.459 813.833L770.963 872.256C751.032 883.987 730.551 894.321 710.522 905.731C698.489 912.586 686.371 922.396 674.365 929.602L316.431 1140.75C268.736 1168.49 216.777 1205 164.35 1223.31C156.306 1226.12 103.796 1225.62 94.211 1223.82C68.1899 1218.94 30.1807 1193.98 25.5094 1165.27C14.6976 1119.29 14.9556 1075.82 14.9702 1029.5L15.014 938.577L15.4957 633.107L15.72 338.656L15.7223 246.956C15.7332 199.798 15.7748 152.641 22.9882 105.897C24.5723 95.6315 27.6076 87.4501 32.8516 78.4726C47.7904 52.8982 76.0746 33.559 104.866 26.1288C132.299 19.0493 168.422 34.0881 193.515 45.0605C221.105 57.6138 248.013 75.6374 274.26 91.0034L431.475 183.168L719.767 353.055C756.967 374.728 794.873 394.612 831.983 416.162C851.808 427.675 870.411 441.907 891.046 453.621C902.449 461.252 916.745 466.385 928.176 473.494C980.02 505.735 1056.98 538.883 1072.84 604.026C1073.14 605.746 1073.59 607.704 1073.53 609.42C1073.75 618.172 1073.26 627.807 1073.52 636.05C1073.2 639.263 1072.84 640.95 1072.14 644.022Z"/><path fill="white" transform="matrix(0.262009 0 0 0.262602 0 9.53674e-07)" d="M1075.05 0L1145 0L1145 1230L1075.13 1230C1074.33 1208.57 1074.92 1183.31 1074.92 1161.61L1074.94 1035.99L1074.87 640.791L1074.66 629.689C1074.99 627.502 1074.74 617.419 1074.65 615.051L1074.79 603.858C1075.22 597.73 1074.94 589.209 1074.94 582.824L1074.93 545.424L1074.92 427.643L1074.91 147.798C1074.91 99.0354 1074.26 48.6617 1075.05 0Z"/><path fill="white" fill-opacity="0.62352943" transform="matrix(0.262009 0 0 0.262602 0 9.53674e-07)" d="M1073.53 609.42L1074.65 615.051C1074.74 617.419 1074.99 627.502 1074.66 629.689L1073.52 636.05C1073.26 627.807 1073.75 618.172 1073.53 609.42Z"/><path fill="white" fill-opacity="0.06666667" transform="matrix(0.262009 0 0 0.262602 0 9.53674e-07)" d="M1073.52 636.05L1074.66 629.689L1074.87 640.791L1073.98 643.435C1072.9 643.965 1073.29 643.902 1072.14 644.022C1072.84 640.95 1073.2 639.263 1073.52 636.05Z"/><path fill="white" fill-opacity="0.094117649" transform="matrix(0.262009 0 0 0.262602 0 9.53674e-07)" d="M1074.79 603.858L1074.65 615.051L1073.53 609.42C1073.59 607.704 1073.14 605.746 1072.84 604.026L1074.79 603.858Z"/></svg>