<?xml version="1.0" encoding="utf-8" ?><svg xmlns="http://www.w3.org/2000/svg" xmlns:xlink="http://www.w3.org/1999/xlink" width="300" height="338" viewBox="0 0 300 338"><path fill="#FEFEFE" transform="matrix(0.27933 0 0 0.280033 -6.10352e-05 1.90735e-06)" d="M334.864 15.4619C369.481 15.082 392.811 19.3904 421.438 41.1628C435.492 52.4835 446.124 66.6954 451.507 83.8915C457.123 101.832 455.084 122.975 455.086 141.904L455.094 235.161L455.089 547.093L455.074 930.149L455.077 1051.33L455.115 1089.38C455.122 1094.78 455.746 1105.77 454.922 1110.57C446.623 1158.91 402.601 1188.09 355.931 1191.93C328.931 1192.52 307.37 1189.33 284.035 1175.35C260.47 1161.23 243.302 1139.62 238.577 1112.41C238.338 1111.03 236.95 1110.9 235.797 1110.5C234.43 1107.28 234.96 1086.63 234.976 1081.66L235.029 1022.02L235.023 784.543L235.014 326.678L235.014 177.779L235.019 129.34C235.025 120.515 234.665 110.644 235.242 101.872C237.974 60.3417 273.9 29.9013 311.859 19.4047C319.331 17.3383 327.275 16.9059 334.864 15.4619Z"/><path fill="#FEFEFE" transform="matrix(0.27933 0 0 0.280033 -6.10352e-05 1.90735e-06)" d="M758.721 15.4782C793.502 14.8929 818.051 19.7022 846.607 42.1319C860.799 53.9499 869.966 66.9453 875.682 84.4363C879.983 97.5958 879.012 103.941 879.028 117.477L879.034 154.787L879.033 270.958L879.03 636.045L879.025 961.179L879.032 1061.95C879.037 1075.62 879.911 1091.53 879.078 1105.01C875.892 1156.6 826.353 1188.07 779.779 1191.94C776.463 1192.01 773.147 1192.06 769.83 1192.07C728.876 1192.1 688.374 1171.77 669.429 1134.53C665.821 1127.44 664.572 1118.6 661.738 1111.25C661.793 1111.4 660.36 1111.12 659.174 1109.93C658.47 1086.01 658.968 1059.83 658.966 1035.78L658.963 902.571L658.972 497.03L658.965 231.437L658.973 146.299C658.975 133.04 658.937 119.799 659.039 106.526C659.374 62.9868 696.123 30.3731 735.659 19.4762C743.147 17.4122 751.053 16.9272 758.721 15.4782Z"/></svg>