<?xml version="1.0" encoding="utf-8" ?><svg xmlns="http://www.w3.org/2000/svg" xmlns:xlink="http://www.w3.org/1999/xlink" width="300" height="337" viewBox="0 0 300 337"><path fill="white" transform="matrix(0.307377 0 0 0.307482 0 3.8147e-06)" d="M87.3397 1096C65.1619 1089.44 40.2873 1078.42 28.4281 1056.96C19.6653 1041.09 15.4652 999.442 14.1302 980.653C12.9389 963.886 13.4235 940.468 13.4288 923.347L13.4669 842.113L13.8743 579.656L14.0603 293.239C14.0783 243.602 13.2109 193.069 15.6012 143.577C16.4172 126.682 18.5445 100.157 22.4863 84.1031C27.5152 63.621 48.8345 42.2249 67.5419 32.328C94.6294 17.9978 110.608 16.8285 140.209 25.7321C179.073 37.422 210.726 58.5881 245.009 79.2754L319.497 123.452L513.426 235.338C529.027 244.489 544.08 254.152 559.512 263.526L640.008 311.545C675.199 332.279 711.273 351.157 746.588 371.616C765.39 383.088 783.189 396.042 802.388 406.915C814.651 413.86 827.704 419.615 839.668 427.033C871.997 447.082 907.309 463.586 933.834 491.579C955.926 514.894 970.705 547.001 959.801 579.096C946.022 625.139 911.869 647.573 873.134 671.365C859.28 679.874 845.01 689.631 830.527 697.241C809.877 707.234 791.714 719.478 772.094 731.348L687.516 781.924C671.409 791.348 654.664 799.62 638.555 808.906C626.678 815.753 615.01 824.949 603.159 832.018L305.457 1007.71C286.816 1018.36 268.372 1029.35 250.133 1040.67C218.717 1059.85 176.843 1086.05 142.116 1096L87.3397 1096Z"/></svg>