<?xml version="1.0" encoding="utf-8" ?><svg xmlns="http://www.w3.org/2000/svg" xmlns:xlink="http://www.w3.org/1999/xlink" width="300" height="322" viewBox="0 0 300 322"><path fill="white" transform="matrix(0.261552 0 0 0.261789 0.00012207 -1.90735e-06)" d="M72.12 593.007C86.7123 516.979 151.616 491.247 209.779 453.084C218.799 447.165 229.901 443.291 239.086 437.703C250.288 430.888 261.323 423.809 272.555 417.024L374.759 355.678C395.411 343.457 416.765 332.717 437.515 320.774C449.069 314.123 460.566 304.748 471.923 297.911L809.82 98.3052C827.991 87.9318 845.997 77.2697 863.829 66.323C898.427 45.0596 933.686 22.9876 971.343 7.63254C986.561 1.42687 996.806 1.39705 1012.97 1.89172C1025.61 2.27831 1038.94 0.832847 1051.5 2.99832C1073.29 7.13964 1099.88 22.5859 1112.37 41.1931C1115.8 46.278 1118.5 51.8253 1120.37 57.6685C1123.35 66.9781 1124.71 78.2226 1126.21 87.9909C1128.26 101.425 1130.43 115.701 1131.14 129.309C1132.37 153.141 1132 177.499 1132 201.404L1131.94 311.836L1131.42 664.03L1131.33 927.784C1131.32 993.767 1133.44 1061.63 1123.35 1127.04C1118.65 1149.59 1100.77 1172.49 1081.84 1184.61C1056.78 1200.65 1034.85 1208.72 1005.25 1202.09C958.817 1191.68 920.953 1166.63 880.833 1142.7L787.063 1087.06L566.119 959.451C551.083 950.623 535.904 940.713 520.95 931.594L451.462 890.123C428.583 876.372 405.475 863.006 382.148 850.03C360.132 837.761 337.594 826.009 315.967 813.098C288.64 796.784 263.192 777.353 234.485 763.229C216.966 754.61 200.529 744.31 183.766 734.353C137.188 707.531 84.108 676.206 72.1421 619.103C71.1152 609.994 71.365 602.032 72.12 593.007Z"/><path fill="white" transform="matrix(0.261552 0 0 0.261789 0.00012207 -1.90735e-06)" d="M0 0L70.092 0L70.1283 592.683C70.3031 600.276 69.8327 611.754 70.2854 618.503C69.8006 639.199 70.1282 661.026 70.1319 681.784L70.1439 794.106L70.1304 1230L0 1230L0 0Z"/><path fill="white" fill-opacity="0.10588235" transform="matrix(0.261552 0 0 0.261789 0.00012207 -1.90735e-06)" d="M70.1283 592.683L72.12 593.007C71.365 602.032 71.1152 609.994 72.1421 619.103L70.2854 618.503C69.8327 611.754 70.3031 600.276 70.1283 592.683Z"/></svg>